<?xml version="1.0" encoding="utf-8"?>
<!-- Generator: Adobe Illustrator 21.0.0, SVG Export Plug-In . SVG Version: 6.00 Build 0)  -->
<svg version="1.1" id="Layer_1" xmlns="http://www.w3.org/2000/svg" xmlns:xlink="http://www.w3.org/1999/xlink" x="0px" y="0px"
	 viewBox="0 0 1702 349.2" style="enable-background:new 0 0 1702 349.2;" xml:space="preserve">
<style type="text/css">
	.st0{fill:#CD5C5C;}
	.st1{fill:#1E1C1C;}
</style>
<path class="st0" d="M202.8,168.4V92.1H54.5v76.3h-9.9v96.4h2.5h12.4h2.5v-24.7c0-9.5,7.8-17.3,17.3-17.3c4.6,0,8.9,1.8,12.2,5.1
	c3.3,3.3,5.1,7.6,5.1,12.2v24.7h14.8v-24.7c0-9.5,7.8-17.3,17.3-17.3c4.6,0,8.9,1.8,12.2,5.1c3.3,3.3,5.1,7.6,5.1,12.2v24.7h14.8
	v-24.7c0-9.5,7.8-17.3,17.3-17.3c4.6,0,8.9,1.8,12.2,5.1c3.3,3.3,5.1,7.6,5.1,12.2v24.7h2.5h12.4h2.5v-96.4H202.8z M185.9,168.4
	h-28.2v-12.8c0-7.8,6.3-14.1,14.1-14.1c3.7,0,7.3,1.5,10,4.2c2.7,2.7,4.2,6.2,4.2,10L185.9,168.4L185.9,168.4z M142.8,168.4h-28.2
	v-12.8c0-7.8,6.3-14.1,14.1-14.1c3.7,0,7.3,1.5,10,4.2c2.7,2.7,4.2,6.2,4.2,10L142.8,168.4L142.8,168.4z M99.7,168.4H71.5v-12.8
	c0-7.8,6.3-14.1,14.1-14.1c3.7,0,7.3,1.5,10,4.2c2.7,2.7,4.2,6.2,4.2,10C99.7,155.5,99.7,168.4,99.7,168.4z M188,107v24.6
	c-4.8-3.3-10.4-5-16.3-5c-8.5,0-16.2,3.7-21.5,9.6c-0.3-0.4-0.7-0.8-1.1-1.1c-5.5-5.5-12.7-8.5-20.5-8.5c-8.5,0-16.2,3.7-21.5,9.6
	c-0.3-0.4-0.7-0.8-1.1-1.1c-5.5-5.5-12.7-8.5-20.5-8.5c-6,0-11.6,1.9-16.3,5V107L188,107L188,107z M178.1,207.9
	c-9.9,0-18.8,4.5-24.7,11.6c-0.6-0.8-1.3-1.5-2-2.2c-6.1-6.1-14.1-9.4-22.7-9.4c-9.9,0-18.8,4.5-24.7,11.6c-0.6-0.8-1.3-1.5-2-2.2
	c-6.1-6.1-14.1-9.4-22.7-9.4c-7.5,0-14.3,2.6-19.8,6.8v-30.3h138.5v30.3C192.3,210.4,185.4,207.9,178.1,207.9L178.1,207.9z"/>
<g>
	<path class="st1" d="M343.3,188.8c-2.1-2.5-5.2-3.7-9.2-3.7h-22V174h22c4,0,7.1-1.2,9.2-3.7s3.2-5.8,3.2-10c0-4-1.4-7.2-4.2-9.5
		c-2.8-2.3-6.2-3.5-10.1-3.5c-7,0-14.9,3.3-23.7,9.8v-12.6c7.1-5.3,14.6-7.9,22.6-7.9c7.6,0,13.9,2.1,19.1,6.3
		c5.2,4.2,7.8,9.8,7.8,16.9c0,10.6-2,17.1-6.1,19.6c4,2,6.1,8.8,6.1,20.2c0,7.1-2.6,12.7-7.8,17c-5.2,4.2-11.5,6.3-19.1,6.3
		c-8.1,0-15.6-2.8-22.6-8.4v-16.1c7.6,8.7,15.1,13.1,22.6,13.1c4,0,7.6-1.1,10.7-3.3c3.2-2.2,4.7-5.2,4.7-9.1
		C346.5,194.6,345.4,191.3,343.3,188.8z"/>
	<path class="st1" d="M381.4,187.2v35.6h-11.1v-85.9h11.1v39.3H408v-39.3h11.1v85.9H408v-35.6H381.4z"/>
	<path class="st1" d="M467.1,136.8l31.3,85.9h-11.8l-11.1-30.4h-22.8l-11,30.4h-11.9l31.3-85.9H467.1z M471.4,181.2l-7.4-20.1
		l-7.3,20.1H471.4z"/>
	<path class="st1" d="M520.2,182.2v40.6h-11.1v-85.9h11.1v27.1l20.3-27.1h14.1l-26.4,35.3l32.8,50.6h-13.5L521,181.3L520.2,182.2z"
		/>
	<path class="st1" d="M647.6,148.6c8.6,8.6,12.9,19,12.9,31.1s-4.3,22.5-12.9,31.1s-19,12.9-31.1,12.9s-22.5-4.3-31.1-12.9
		s-12.9-19-12.9-31.1s4.3-22.5,12.9-31.1s19-12.9,31.1-12.9S639,140,647.6,148.6z M616.5,146.9c-9.1,0-16.8,3.2-23.2,9.6
		c-6.4,6.4-9.6,14.1-9.6,23.2c0,9.1,3.2,16.8,9.6,23.2c6.4,6.4,14.1,9.6,23.1,9.6c9.1,0,16.8-3.2,23.2-9.6
		c6.4-6.4,9.6-14.1,9.6-23.2c0-9.1-3.2-16.8-9.6-23.2C633.3,150.1,625.6,146.9,616.5,146.9z"/>
	<path class="st1" d="M688.1,136.8L716,185l27.8-48.2h10.2v85.9h-11.1v-62.1L716,207.1l-26.9-46.4v62.1H678v-85.9H688.1z"/>
	<path class="st1" d="M839.1,202.3l8.3,7.5c-10.2,9.3-20.9,13.9-32.3,13.9c-12.1,0-22.5-4.3-31-12.8c-8.6-8.6-12.8-18.9-12.8-31
		c0-12.1,4.3-22.5,12.8-31c8.6-8.6,18.9-12.9,31-12.9c11.4,0,22.1,4.6,32.3,13.9l-8.3,7.6c-7.7-6.8-15.6-10.2-24-10.2
		c-9,0-16.7,3.2-23.1,9.6c-6.4,6.4-9.6,14.1-9.6,23.1c0,9.1,3.2,16.8,9.6,23.1c6.4,6.4,14.1,9.6,23.1,9.6
		C823.5,212.5,831.5,209.1,839.1,202.3z"/>
	<path class="st1" d="M886.7,147.9v74.8h-11.2v-74.8h-20v-11.1h51.2v11.1H886.7z"/>
	<path class="st1" d="M934.9,136.8c5,0,9.2,1.8,12.8,5.3c3.5,3.5,5.3,7.8,5.3,12.8c0,5.1-2.6,8.3-7.7,9.5c3.7,0.5,8,3.2,12.7,7.9
		c4.7,4.8,7.1,11.4,7.1,19.8c0,8.4-3,15.7-8.9,21.8c-5.6,5.8-11.1,8.7-16.7,8.8v0.1h-22v-85.9H934.9z M928.6,147.9v13.6h7.3
		c1.6-0.1,3.1-0.8,4.2-1.9c1.3-1.2,1.9-2.8,1.9-4.8c0-2-0.7-3.7-2-5c-1.3-1.3-3.1-2-5.1-2H928.6z M928.6,173v38.6h10.9v-0.2
		c2.3-0.1,5.1-2,8.5-5.5c3.8-3.9,5.6-8.5,5.6-13.8c0-5.3-1.9-9.8-5.6-13.5c-3.7-3.7-8.2-5.6-13.5-5.6H928.6z"/>
	<path class="st1" d="M1051.7,148.6c8.6,8.6,12.9,19,12.9,31.1s-4.3,22.5-12.9,31.1s-19,12.9-31.1,12.9s-22.5-4.3-31.1-12.9
		s-12.9-19-12.9-31.1s4.3-22.5,12.9-31.1s19-12.9,31.1-12.9S1043.1,140,1051.7,148.6z M1020.6,146.9c-9.1,0-16.8,3.2-23.2,9.6
		c-6.4,6.4-9.6,14.1-9.6,23.2c0,9.1,3.2,16.8,9.6,23.2c6.4,6.4,14.1,9.6,23.1,9.6c9.1,0,16.8-3.2,23.2-9.6
		c6.4-6.4,9.6-14.1,9.6-23.2c0-9.1-3.2-16.8-9.6-23.2C1037.4,150.1,1029.6,146.9,1020.6,146.9z"/>
	<path class="st1" d="M1183.9,202.3l8.3,7.5c-10.2,9.3-20.9,13.9-32.3,13.9c-12.1,0-22.5-4.3-31-12.8c-8.6-8.6-12.8-18.9-12.8-31
		c0-12.1,4.3-22.5,12.8-31c8.6-8.6,18.9-12.9,31-12.9c11.4,0,22.1,4.6,32.3,13.9l-8.3,7.6c-7.7-6.8-15.6-10.2-24-10.2
		c-9,0-16.7,3.2-23.1,9.6c-6.4,6.4-9.6,14.1-9.6,23.1c0,9.1,3.2,16.8,9.6,23.1c6.4,6.4,14.1,9.6,23.1,9.6
		C1168.3,212.5,1176.3,209.1,1183.9,202.3z"/>
	<path class="st1" d="M1254.8,195.2v27.5h-11.1v-85.9h24.4c6.9,0.9,12.7,3.8,17.5,8.5c5.7,5.7,8.5,12.6,8.5,20.6
		c0,8.1-2.8,15-8.5,20.7c-5.7,5.7-12.6,8.6-20.6,8.6H1254.8z M1254.8,148v36.1h10.2c4.9,0,9.2-1.8,12.7-5.3
		c3.5-3.5,5.3-7.8,5.3-12.8c0-5-1.8-9.2-5.3-12.7c-3.5-3.5-7.8-5.3-12.7-5.3H1254.8z"/>
	<path class="st1" d="M1373.2,136.8v85.9H1362v-65l-46.4,65h-11.9v-85.9h11.2v66.7l47.6-66.7H1373.2z"/>
	<path class="st1" d="M1400.7,136.8l27.9,48.2l27.8-48.2h10.2v85.9h-11.1v-62.1l-26.8,46.4l-26.9-46.4v62.1h-11.1v-85.9H1400.7z"/>
	<path class="st1" d="M1559,148.6c8.6,8.6,12.9,19,12.9,31.1s-4.3,22.5-12.9,31.1s-19,12.9-31.1,12.9s-22.5-4.3-31.1-12.9
		s-12.9-19-12.9-31.1s4.3-22.5,12.9-31.1s19-12.9,31.1-12.9S1550.4,140,1559,148.6z M1527.9,146.9c-9.1,0-16.8,3.2-23.2,9.6
		c-6.4,6.4-9.6,14.1-9.6,23.2c0,9.1,3.2,16.8,9.6,23.2c6.4,6.4,14.1,9.6,23.1,9.6c9.1,0,16.8-3.2,23.2-9.6
		c6.4-6.4,9.6-14.1,9.6-23.2c0-9.1-3.2-16.8-9.6-23.2C1544.7,150.1,1536.9,146.9,1527.9,146.9z"/>
	<path class="st1" d="M1599.5,136.8l27.9,48.2l27.8-48.2h10.2v85.9h-11.1v-62.1l-26.8,46.4l-26.9-46.4v62.1h-11.1v-85.9H1599.5z"/>
</g>
</svg>
