<?xml version='1.0' encoding='iso-8859-1'?>
<svg version="1.1" xmlns="http://www.w3.org/2000/svg" viewBox="0 0 349.193 349.193" xmlns:xlink="http://www.w3.org/1999/xlink" enable-background="new 0 0 349.193 349.193">
  <path d="m324.597,154.193v-154.193h-300v154.193h-20v195h5 25 5v-50c0-19.299 15.701-35 35-35 9.298,0 18.068,3.654 24.709,10.304 6.637,6.628 10.291,15.398 10.291,24.696v50h30v-50c0-19.299 15.701-35 35-35 9.298,0 18.068,3.654 24.709,10.304 6.637,6.628 10.291,15.398 10.291,24.696v50h30v-50c0-19.299 15.701-35 35-35 9.298,0 18.068,3.654 24.709,10.304 6.637,6.628 10.291,15.398 10.291,24.696v50h5 25 5v-195h-20zm-34.355,0h-57.097v-25.968c0-15.741 12.807-28.548 28.548-28.548 7.581,0 14.734,2.981 20.153,8.406 5.414,5.408 8.395,12.562 8.395,20.142v25.968zm-87.096,0h-57.098v-25.968c0-15.741 12.807-28.548 28.549-28.548 7.581,0 14.734,2.981 20.153,8.406 5.414,5.408 8.395,12.562 8.395,20.142v25.968zm-87.096,0h-57.097v-25.968c0-15.741 12.807-28.548 28.549-28.548 7.58,0 14.733,2.981 20.153,8.406 5.413,5.407 8.395,12.561 8.395,20.142v25.968zm178.549-124.193v49.846c-9.64-6.605-21.004-10.168-32.903-10.168-17.283,0-32.836,7.533-43.563,19.482-0.701-0.778-1.421-1.543-2.168-2.289-11.075-11.087-25.766-17.193-41.366-17.193-17.284,0-32.836,7.533-43.563,19.481-0.701-0.778-1.421-1.543-2.168-2.289-11.076-11.087-25.766-17.192-41.366-17.192-12.19,0-23.519,3.749-32.903,10.148v-49.826h240zm-20,204.193c-20.095,0-38.087,9.169-50.019,23.54-1.279-1.533-2.627-3.022-4.058-4.451-12.296-12.311-28.606-19.09-45.923-19.09-20.095,0-38.087,9.169-50.019,23.54-1.279-1.533-2.627-3.022-4.058-4.451-12.296-12.311-28.605-19.09-45.923-19.09-15.078,0-28.961,5.175-40,13.822v-61.241h280v61.27c-11.396-8.968-25.331-13.849-40-13.849z"/>
</svg>
