<?xml version="1.0" encoding="utf-8"?>
<!-- Generator: Adobe Illustrator 21.0.0, SVG Export Plug-In . SVG Version: 6.00 Build 0)  -->
<svg version="1.1" id="Layer_1" xmlns="http://www.w3.org/2000/svg" xmlns:xlink="http://www.w3.org/1999/xlink" x="0px" y="0px"
	 viewBox="0 0 1702 349.2" style="enable-background:new 0 0 1702 349.2;" xml:space="preserve">
<style type="text/css">
	.st0{fill:#CD5C5C;}
	.st1{fill:none;}
	.st2{fill:#1E1C1C;}
	.st3{font-family:'CaviarDreams-Bold';}
	.st4{font-size:110px;}
</style>
<path class="st0" d="M202.8,168.4V92.1H54.5v76.3h-9.9v96.4h2.5h12.4h2.5v-24.7c0-9.5,7.8-17.3,17.3-17.3c4.6,0,8.9,1.8,12.2,5.1
	c3.3,3.3,5.1,7.6,5.1,12.2v24.7h14.8v-24.7c0-9.5,7.8-17.3,17.3-17.3c4.6,0,8.9,1.8,12.2,5.1c3.3,3.3,5.1,7.6,5.1,12.2v24.7h14.8
	v-24.7c0-9.5,7.8-17.3,17.3-17.3c4.6,0,8.9,1.8,12.2,5.1c3.3,3.3,5.1,7.6,5.1,12.2v24.7h2.5h12.4h2.5v-96.4H202.8z M185.9,168.4
	h-28.2v-12.8c0-7.8,6.3-14.1,14.1-14.1c3.7,0,7.3,1.5,10,4.2c2.7,2.7,4.2,6.2,4.2,10L185.9,168.4L185.9,168.4z M142.8,168.4h-28.2
	v-12.8c0-7.8,6.3-14.1,14.1-14.1c3.7,0,7.3,1.5,10,4.2c2.7,2.7,4.2,6.2,4.2,10L142.8,168.4L142.8,168.4z M99.7,168.4H71.5v-12.8
	c0-7.8,6.3-14.1,14.1-14.1c3.7,0,7.3,1.5,10,4.2c2.7,2.7,4.2,6.2,4.2,10C99.7,155.5,99.7,168.4,99.7,168.4z M188,107v24.6
	c-4.8-3.3-10.4-5-16.3-5c-8.5,0-16.2,3.7-21.5,9.6c-0.3-0.4-0.7-0.8-1.1-1.1c-5.5-5.5-12.7-8.5-20.5-8.5c-8.5,0-16.2,3.7-21.5,9.6
	c-0.3-0.4-0.7-0.8-1.1-1.1c-5.5-5.5-12.7-8.5-20.5-8.5c-6,0-11.6,1.9-16.3,5V107L188,107L188,107z M178.1,207.9
	c-9.9,0-18.8,4.5-24.7,11.6c-0.6-0.8-1.3-1.5-2-2.2c-6.1-6.1-14.1-9.4-22.7-9.4c-9.9,0-18.8,4.5-24.7,11.6c-0.6-0.8-1.3-1.5-2-2.2
	c-6.1-6.1-14.1-9.4-22.7-9.4c-7.5,0-14.3,2.6-19.8,6.8v-30.3h138.5v30.3C192.3,210.4,185.4,207.9,178.1,207.9L178.1,207.9z"/>
<rect x="303" y="136.8" class="st1" width="1472" height="178.2"/>
<text transform="matrix(1 0 0 1 303 222.7463)" class="st2 st3 st4">ЗНАКОМСТВО С РИМОМ</text>
</svg>
